<?xml version="1.0" encoding="utf-8"?>
<!-- Generator: Adobe Illustrator 16.0.0, SVG Export Plug-In . SVG Version: 6.00 Build 0)  -->
<!DOCTYPE svg PUBLIC "-//W3C//DTD SVG 1.1//EN" "http://www.w3.org/Graphics/SVG/1.1/DTD/svg11.dtd">
<svg version="1.1" id="Layer_1" xmlns="http://www.w3.org/2000/svg" xmlns:xlink="http://www.w3.org/1999/xlink" x="0px" y="0px"
     width="115.5px" height="115.5px" viewBox="0 0 115.5 115.5" enable-background="new 0 0 115.5 115.5" xml:space="preserve">
<g>
	<g>
		<path fill="#FFDB00" d="M106.779,57.731v0.036c0.008,12.762-4.357,25.521-13.196,35.073c-7.019,7.584-15.574,12.742-26.065,12.957
			c-18.037,0.371-36.083,0.072-54.125,0.155c-0.294,0.002-0.56-0.013-0.799-0.037h-1.954V94.854c0.006-1.676,0.011-3.35,0.014-5.022
			c0.006-3.539,0.004-7.079-0.005-10.619h0.005V65.014h5.665V68.9c-0.029,4.018-0.021,8.037-0.014,12.054
			c0.004,2.959,0.007,5.916-0.006,8.874h0.009v10.482h2.719c0.207,0.012,0.43,0.016,0.668,0.012
			c15.075-0.158,30.151-0.144,45.227-0.055c8.808,0.053,16.161-3.23,22.416-9.211c9.021-8.625,13.753-20.861,13.769-33.292V57.73
			c-0.016-12.429-4.748-24.666-13.769-33.29c-6.255-5.979-13.608-9.264-22.416-9.212c-15.075,0.088-30.152,0.104-45.227-0.054
			c-0.238-0.003-0.461,0.001-0.668,0.013h-2.719V25.67h-0.009c0.013,2.958,0.011,5.916,0.006,8.874
			c-0.006,4.018-0.014,8.036,0.014,12.055v3.887H10.65V36.289h-0.005c0.01-3.54,0.011-7.079,0.005-10.619
			c-0.002-1.674-0.008-3.348-0.014-5.022V9.585h1.954c0.239-0.027,0.505-0.04,0.799-0.038C31.432,9.63,49.481,9.33,67.518,9.702
			c10.491,0.215,19.047,5.373,26.065,12.956C102.422,32.211,106.787,44.971,106.779,57.731z"/>
      <path fill="#FFDB00" d="M96.357,57.731v0.036C96.332,68.838,92.458,79.9,84.74,87.455c-5.182,5.07-11.344,8.265-18.701,8.336
			c-13.235,0.13-26.471,0.023-39.707,0.093c-0.89,0.005-1.779,0.011-2.668,0.017h-2.946v-8.068c0.021-2.671,0.03-5.348,0.028-8.018
			V65.014h5.582v1.803l0.013,6.716c0,0.901,0.004,1.807,0.007,2.71c0.01,2.854,0.025,5.712-0.017,8.564
			c-0.012,0.771-0.027,1.545-0.048,2.315c-0.011,0.429,0.003,0.801,0.048,1.128v2.025h2.962c0.076,0,0.154,0,0.232,0h0.563V90.27
			c11.444-0.104,22.89-0.112,34.333-0.016c6.437,0.055,11.748-2.281,16.263-6.751c6.635-6.569,9.972-16.144,9.992-25.734v-0.036
			C90.654,48.141,87.318,38.571,80.684,32c-4.515-4.471-9.826-6.805-16.263-6.75c-11.442,0.098-22.889,0.089-34.333-0.019v-0.005
			h-0.563c-0.079,0-0.156,0-0.232,0h-2.962v2.025c-0.044,0.326-0.059,0.699-0.048,1.128c0.021,0.771,0.036,1.543,0.048,2.315
			c0.042,2.854,0.028,5.71,0.017,8.566c-0.003,0.903-0.007,1.807-0.007,2.71l-0.013,6.713v1.804h-5.583v-14.8
			c0.001-2.672-0.009-5.345-0.028-8.017V19.6h2.946c0.889,0.006,1.778,0.011,2.668,0.016c13.236,0.069,26.472-0.037,39.707,0.093
			c7.356,0.072,13.521,3.267,18.7,8.336C92.458,35.598,96.332,46.66,96.357,57.731z"/>
      <path fill="#FFDB00" d="M86.096,57.731v0.036c-0.006,6.756-1.861,13.499-5.601,18.911c-3.604,5.217-8.241,8.951-14.89,9.03
			C55.298,85.833,44.99,85.74,34.68,85.782c-0.37,0.001-0.74,0.004-1.109,0.005H31.05v-8.285c0-0.158,0.001-0.316,0.002-0.475
			c0.007-1.358,0.008-2.717,0-4.074v-7.939h5.501v15.16h2.228c0.185,0.012,0.382,0.016,0.592,0.014
			c0.326-0.006,0.652-0.01,0.978-0.014h0.718v-0.007c7.976-0.086,15.955-0.019,23.931-0.032c4.089-0.01,7.248-1.865,9.763-4.996
			c3.687-4.592,5.563-10.992,5.603-17.389c-0.037-6.396-1.916-12.798-5.603-17.389c-2.515-3.132-5.674-4.988-9.763-4.997
			c-7.978-0.016-15.956,0.052-23.931-0.032v-0.008H40.35c-0.326-0.004-0.652-0.008-0.978-0.012c-0.21-0.003-0.407,0.001-0.592,0.012
			h-2.228v15.162h-5.501v-7.939c0.008-1.358,0.006-2.716,0-4.074c0-0.158-0.001-0.317-0.002-0.476v-8.285h2.521
			c0.37,0.002,0.74,0.004,1.11,0.005c10.309,0.043,20.617-0.051,30.924,0.073c6.646,0.08,11.287,3.815,14.891,9.031
			C84.232,44.234,86.09,50.977,86.096,57.731z"/>
	</g>
  <circle fill="#FFDB00" cx="13.4" cy="57.728" r="4.679"/>
  <circle fill="#FFDB00" cx="23.796" cy="57.728" r="4.679"/>
  <circle fill="#FFDB00" cx="34.192" cy="57.728" r="4.678"/>
  <g>
		<g>
			<path fill="#FFDB00" d="M99.709,20.746c-3.081,0-5.587-2.506-5.587-5.587c0-3.08,2.506-5.586,5.587-5.586
				c3.08,0,5.585,2.506,5.585,5.586C105.295,18.24,102.789,20.746,99.709,20.746z M99.709,10.521c-2.561,0-4.641,2.081-4.641,4.64
				c0,2.558,2.08,4.64,4.641,4.64c2.557,0,4.641-2.082,4.641-4.64C104.348,12.601,102.266,10.521,99.709,10.521z"/>
		</g>
    <g>
			<path fill="#FFDB00" d="M97.271,17.87v-5.421h2.305c0.578,0,1,0.049,1.262,0.146c0.264,0.098,0.473,0.271,0.631,0.521
				c0.158,0.249,0.236,0.533,0.236,0.854c0,0.407-0.119,0.742-0.357,1.008c-0.24,0.266-0.598,0.433-1.072,0.501
				c0.236,0.139,0.434,0.29,0.587,0.455s0.36,0.459,0.622,0.88l0.662,1.058h-1.31l-0.792-1.18c-0.281-0.421-0.473-0.687-0.577-0.797
				c-0.103-0.109-0.213-0.185-0.329-0.226c-0.115-0.041-0.3-0.062-0.55-0.062h-0.223v2.264L97.271,17.87L97.271,17.87z
				 M98.366,14.742h0.811c0.525,0,0.854-0.022,0.983-0.066c0.131-0.045,0.232-0.121,0.308-0.229
				c0.074-0.108,0.111-0.244,0.111-0.407c0-0.183-0.05-0.329-0.146-0.441c-0.101-0.112-0.236-0.184-0.412-0.213
				c-0.09-0.013-0.355-0.019-0.802-0.019h-0.854V14.742L98.366,14.742z"/>
		</g>
	</g>
</g>
</svg>
